<?xml version="1.0" standalone="no"?>
<!DOCTYPE svg PUBLIC "-//W3C//DTD SVG 20010904//EN"
 "http://www.w3.org/TR/2001/REC-SVG-20010904/DTD/svg10.dtd">
<svg version="1.0" xmlns="http://www.w3.org/2000/svg"
 width="512.000000pt" height="512.000000pt" viewBox="0 0 512.000000 512.000000"
 preserveAspectRatio="xMidYMid meet">

<g transform="translate(0.000000,512.000000) scale(0.100000,-0.100000)"
fill="#000000" stroke="none">
<path d="M4890 5109 c-28 -8 -537 -512 -2438 -2412 -1322 -1321 -2412 -2417
-2424 -2435 -25 -40 -27 -115 -5 -158 44 -85 144 -120 227 -81 21 10 1007 989
2442 2424 2178 2180 2408 2412 2418 2451 35 134 -86 250 -220 211z"/>
<path d="M4442 3609 c-38 -19 -67 -59 -302 -408 l-259 -386 -383 -103 -383
-102 -302 -303 -303 -302 -102 -383 -103 -384 -385 -258 c-263 -176 -391 -268
-403 -288 -49 -85 -23 -190 59 -238 38 -22 54 -26 102 -22 54 4 68 11 270 146
116 78 212 137 212 130 0 -7 -29 -121 -65 -253 -36 -132 -65 -257 -65 -277 0
-99 72 -170 171 -170 53 0 113 28 142 68 10 13 47 133 83 266 36 134 69 252
73 263 7 16 31 -26 124 -211 74 -147 126 -239 143 -253 61 -48 141 -51 204 -8
58 39 75 71 75 140 -1 60 -7 75 -202 469 l-201 407 114 421 c62 232 115 424
116 426 2 2 144 -137 315 -309 l310 -312 27 -425 c30 -460 35 -507 68 -552 25
-36 90 -67 139 -68 52 0 120 39 146 86 27 47 29 101 9 379 -8 105 -12 192 -10
194 3 3 93 -83 202 -191 210 -209 237 -227 310 -213 105 19 168 116 142 217
-10 37 -40 72 -208 240 -108 109 -194 199 -191 202 2 2 90 -2 194 -10 329 -23
358 -20 416 43 76 81 54 208 -44 264 -35 19 -77 24 -495 51 l-457 31 -312 310
c-172 171 -311 313 -309 315 2 2 194 54 426 116 l422 114 407 -201 c391 -194
408 -201 467 -202 52 0 66 4 98 29 41 31 75 94 76 139 0 33 -24 94 -48 120 -9
11 -120 71 -247 135 -184 92 -226 116 -210 123 11 4 129 37 262 73 134 36 254
73 267 83 106 78 84 256 -37 302 -50 19 -98 12 -342 -54 -132 -36 -246 -65
-253 -65 -7 0 52 95 129 212 78 117 146 228 150 248 17 74 -18 148 -87 187
-49 29 -107 29 -162 2z"/>
</g>
</svg>
